<svg width="142" height="28" viewBox="0 0 142 28" fill="none" xmlns="http://www.w3.org/2000/svg">
<path d="M117.655 21.153V12.653C117.655 11.475 117.926 10.418 118.468 9.483C119.029 8.529 119.824 7.781 120.853 7.238C121.882 6.696 123.107 6.425 124.528 6.425C125.191 6.41853 125.852 6.50333 126.492 6.677C127.091 6.827 127.633 7.042 128.119 7.322C128.624 7.584 129.054 7.902 129.41 8.276H129.466C129.847 7.89665 130.282 7.57523 130.756 7.322C131.277 7.03519 131.834 6.81832 132.412 6.677C133.062 6.50458 133.732 6.41983 134.404 6.425C135.825 6.425 137.05 6.695 138.079 7.238C139.107 7.781 139.902 8.528 140.463 9.483C141.025 10.418 141.305 11.474 141.305 12.653V21.153H136.928V12.793C136.928 12.326 136.807 11.905 136.564 11.531C136.341 11.1398 136.022 10.8116 135.638 10.577C135.233 10.3303 134.765 10.2038 134.291 10.212C133.786 10.212 133.328 10.334 132.917 10.577C132.532 10.8113 132.214 11.1396 131.991 11.531C131.764 11.9124 131.648 12.3493 131.654 12.793V21.153H127.306V12.793C127.306 12.326 127.184 11.905 126.941 11.531C126.713 11.1342 126.384 10.8049 125.987 10.577C125.582 10.3303 125.114 10.2038 124.64 10.212C124.135 10.212 123.677 10.334 123.266 10.577C122.881 10.8113 122.563 11.1396 122.34 11.531C122.114 11.9126 121.997 12.3493 122.003 12.793V21.153H117.655ZM108.144 21.49C106.667 21.49 105.385 21.21 104.301 20.648C103.235 20.068 102.412 19.292 101.832 18.32C101.252 17.329 100.962 16.234 100.962 15.037V6.761H105.311V14.925C105.311 15.43 105.432 15.898 105.675 16.328C105.918 16.739 106.246 17.076 106.657 17.338C107.087 17.581 107.574 17.703 108.116 17.703C108.64 17.703 109.107 17.581 109.519 17.338C109.949 17.076 110.286 16.739 110.529 16.328C110.772 15.898 110.894 15.43 110.894 14.925V6.761H115.242V15.037C115.242 16.234 114.961 17.329 114.4 18.32C113.839 19.292 113.026 20.069 111.96 20.648C110.912 21.209 109.64 21.49 108.144 21.49ZM86.955 21.153V17.703H93.885C94.072 17.703 94.24 17.665 94.39 17.59C94.539 17.497 94.661 17.375 94.754 17.226C94.8456 17.0786 94.8942 16.9085 94.8942 16.735C94.8942 16.5615 94.8456 16.3914 94.754 16.244C94.6666 16.0998 94.5405 15.983 94.39 15.907C94.2385 15.8131 94.0632 15.7645 93.885 15.767H91.36C90.424 15.767 89.573 15.617 88.807 15.318C88.0793 15.0166 87.4551 14.5096 87.011 13.859C86.581 13.186 86.366 12.316 86.366 11.25C86.366 10.427 86.562 9.679 86.955 9.006C87.3639 8.33506 87.9324 7.77576 88.61 7.378C89.3171 6.96762 90.1214 6.75454 90.939 6.761H97.868V10.24H91.612C91.3635 10.235 91.1226 10.3256 90.939 10.493C90.857 10.5732 90.7922 10.6692 90.7487 10.7754C90.7052 10.8815 90.6839 10.9953 90.686 11.11C90.686 11.372 90.771 11.596 90.939 11.783C91.1226 11.9504 91.3635 12.041 91.612 12.036H94.081C95.128 12.036 96.026 12.195 96.774 12.512C97.541 12.812 98.13 13.298 98.542 13.972C98.972 14.645 99.187 15.514 99.187 16.58C99.187 17.422 98.972 18.189 98.542 18.88C98.1339 19.5688 97.5535 20.1395 96.858 20.536C96.166 20.948 95.381 21.153 94.502 21.153H86.955ZM77.481 6.425C78.697 6.425 79.772 6.621 80.707 7.014C81.6254 7.36415 82.451 7.92083 83.12 8.641C83.8019 9.34663 84.3276 10.1879 84.663 11.11C85.018 12.045 85.196 13.083 85.196 14.224C85.196 15.645 84.897 16.908 84.298 18.011C83.7447 19.0681 82.91 19.9516 81.886 20.564C80.857 21.181 79.66 21.49 78.295 21.49C77.715 21.49 77.163 21.415 76.639 21.266C76.1427 21.1201 75.6704 20.9025 75.237 20.62C74.8284 20.3428 74.4762 19.9906 74.199 19.582H74.114V27.242H69.766V14.223C69.766 12.633 70.084 11.258 70.72 10.099C71.3365 8.95818 72.2724 8.02195 73.413 7.405C74.573 6.751 75.929 6.424 77.481 6.424V6.425ZM77.481 10.184C76.808 10.184 76.219 10.352 75.714 10.689C75.227 11.007 74.853 11.456 74.591 12.036C74.33 12.596 74.199 13.233 74.199 13.943C74.199 14.654 74.33 15.29 74.591 15.851C74.853 16.412 75.227 16.861 75.714 17.198C76.219 17.516 76.808 17.675 77.481 17.675C78.154 17.675 78.734 17.515 79.22 17.198C79.7091 16.8586 80.0971 16.3931 80.343 15.851C80.623 15.29 80.763 14.654 80.763 13.943C80.763 13.233 80.623 12.597 80.343 12.036C80.081 11.456 79.707 11.006 79.22 10.689C78.734 10.352 78.154 10.184 77.481 10.184ZM63.158 21.153V6.761H67.535V21.153H63.158ZM65.346 5.134C64.654 5.134 64.056 4.882 63.551 4.377C63.046 3.872 62.793 3.273 62.793 2.581C62.793 1.889 63.046 1.291 63.551 0.786C64.056 0.262 64.654 0 65.346 0C66.038 0 66.637 0.262 67.142 0.786C67.647 1.291 67.899 1.889 67.899 2.581C67.899 3.273 67.647 3.871 67.142 4.377C66.637 4.882 66.038 5.134 65.346 5.134ZM53.646 21.49C52.169 21.49 50.841 21.163 49.662 20.508C48.5054 19.874 47.5376 18.9448 46.857 17.815C46.184 16.674 45.847 15.393 45.847 13.971C45.847 12.531 46.184 11.25 46.857 10.128C47.5376 8.99821 48.5054 8.06899 49.662 7.435C50.841 6.761 52.169 6.425 53.646 6.425C55.124 6.425 56.442 6.761 57.602 7.435C58.7545 8.06459 59.7143 8.99539 60.379 10.128C61.071 11.25 61.417 12.531 61.417 13.971C61.417 15.393 61.071 16.674 60.379 17.815C59.7143 18.9476 58.7545 19.8784 57.602 20.508C56.424 21.163 55.105 21.49 53.646 21.49ZM53.646 17.703C54.338 17.703 54.937 17.534 55.442 17.198C55.9471 16.8614 56.3537 16.3965 56.62 15.851C56.901 15.29 57.041 14.654 57.041 13.943C57.041 13.251 56.901 12.625 56.62 12.063C56.3536 11.5179 55.947 11.0533 55.442 10.717C54.937 10.38 54.338 10.212 53.646 10.212C52.954 10.212 52.346 10.38 51.823 10.717C51.3176 11.0537 50.9108 11.5185 50.644 12.064C50.3583 12.649 50.2144 13.293 50.224 13.944C50.224 14.654 50.364 15.29 50.644 15.851C50.9108 16.3964 51.3177 16.8613 51.823 17.198C52.346 17.534 52.954 17.703 53.646 17.703ZM31.715 26.849V23.117H38.896C39.177 23.117 39.411 23.024 39.598 22.837C39.6892 22.7564 39.7615 22.6568 39.8099 22.5452C39.8583 22.4335 39.8815 22.3126 39.878 22.191V19.021H39.794C39.4388 19.4341 39.0337 19.8016 38.588 20.115C38.176 20.415 37.708 20.639 37.185 20.789C36.6284 20.9454 36.0521 21.0208 35.474 21.013C34.202 21.013 33.061 20.713 32.051 20.115C31.06 19.498 30.274 18.647 29.694 17.562C29.134 16.478 28.853 15.243 28.853 13.859C28.853 12.494 29.143 11.25 29.723 10.128C30.321 9.006 31.191 8.108 32.332 7.435C33.472 6.761 34.866 6.425 36.512 6.425C38.083 6.425 39.439 6.752 40.58 7.407C41.7258 8.02891 42.6626 8.97508 43.273 10.127C43.909 11.287 44.227 12.653 44.227 14.224V22.64C44.227 23.93 43.844 24.95 43.077 25.698C42.329 26.465 41.291 26.848 39.963 26.848L31.715 26.849ZM36.54 17.366C37.213 17.366 37.793 17.216 38.28 16.917C38.7605 16.605 39.1478 16.169 39.401 15.655C39.667 15.114 39.8016 14.5178 39.794 13.915C39.794 13.242 39.664 12.625 39.402 12.064C39.14 11.503 38.766 11.063 38.279 10.745C37.793 10.408 37.213 10.24 36.539 10.24C35.885 10.24 35.305 10.399 34.8 10.717C34.314 11.035 33.94 11.465 33.678 12.007C33.417 12.55 33.286 13.157 33.286 13.831C33.286 14.486 33.416 15.084 33.678 15.627C33.94 16.15 34.314 16.571 34.801 16.889C35.305 17.207 35.885 17.366 36.54 17.366ZM20.014 21.49C18.537 21.49 17.209 21.163 16.031 20.508C14.874 19.8742 13.9058 18.945 13.225 17.815C12.552 16.674 12.215 15.393 12.215 13.971C12.215 12.531 12.552 11.25 13.225 10.128C13.9058 8.99802 14.874 8.06877 16.031 7.435C17.209 6.761 18.537 6.425 20.014 6.425C21.492 6.425 22.81 6.761 23.97 7.435C25.1224 8.06467 26.0822 8.99545 26.747 10.128C27.439 11.25 27.785 12.531 27.785 13.971C27.785 15.393 27.439 16.674 26.747 17.815C26.0822 18.9475 25.1224 19.8783 23.97 20.508C22.792 21.163 21.473 21.49 20.014 21.49ZM20.014 17.703C20.706 17.703 21.304 17.534 21.81 17.198C22.3149 16.8611 22.7214 16.3963 22.988 15.851C23.268 15.29 23.408 14.654 23.408 13.943C23.408 13.251 23.268 12.625 22.988 12.063C22.7213 11.518 22.3148 11.0535 21.81 10.717C21.305 10.38 20.706 10.212 20.014 10.212C19.322 10.212 18.714 10.38 18.191 10.717C17.6856 11.0537 17.2788 11.5185 17.012 12.064C16.7263 12.649 16.5824 13.293 16.592 13.944C16.592 14.654 16.732 15.29 17.012 15.851C17.2788 16.3964 17.6857 16.8613 18.191 17.198C18.714 17.534 19.322 17.703 20.014 17.703ZM6.088 21.153C4.872 21.153 3.806 20.883 2.89 20.34C1.99911 19.8234 1.26291 19.0776 0.757999 18.18C0.252999 17.282 0 16.29 0 15.206V1.515H4.713V15.542C4.713 15.992 4.873 16.384 5.19 16.721C5.508 17.057 5.9 17.226 6.368 17.226H11.558V21.153H6.088Z" fill="#CCCCCC"/>
</svg>
